<svg xmlns="http://www.w3.org/2000/svg" width="512" height="512" viewBox="0 0 512 512" fill="none">
  <rect width="512" height="512" rx="128" fill="#FFF9F7"/>
  <rect x="28" y="28" width="456" height="456" rx="112" fill="#FDF8FF" stroke="#CDBDFF" stroke-width="16"/>
  <circle cx="400" cy="126" r="38" fill="#FFE89A"/>
  <path d="M400 74L409.5 106.5L442 116L409.5 125.5L400 158L390.5 125.5L358 116L390.5 106.5L400 74Z" fill="#FFFDF2"/>
  <path d="M141 227C141 169.562 187.562 123 245 123H261C318.438 123 365 169.562 365 227C365 284.438 318.438 331 261 331H223L159 376L169 311C150.41 293.556 141 264.87 141 227Z" fill="#FFCFE3"/>
  <path d="M233.718 189.492C242.158 176.832 260.684 174.362 272.292 185.032C283.9 174.362 302.426 176.832 310.866 189.492C319.442 202.364 315.309 219.493 303.968 230.824L272.292 262.478L240.616 230.824C229.275 219.493 225.142 202.364 233.718 189.492Z" fill="white"/>
  <circle cx="150" cy="132" r="28" fill="#BFE8FF"/>
  <path d="M150 98L156.7 121.3L180 128L156.7 134.7L150 158L143.3 134.7L120 128L143.3 121.3L150 98Z" fill="white"/>
  <path d="M375 365L383.5 389.5L408 398L383.5 406.5L375 431L366.5 406.5L342 398L366.5 389.5L375 365Z" fill="#CDBDFF"/>
</svg>
