<svg xmlns="http://www.w3.org/2000/svg" width="192" height="192" viewBox="0 0 192 192" fill="none">
  <rect width="192" height="192" rx="48" fill="#FFF9F7"/>
  <rect x="12" y="12" width="168" height="168" rx="40" fill="#FDF8FF" stroke="#CDBDFF" stroke-width="6"/>
  <circle cx="150" cy="48" r="14" fill="#FFE89A"/>
  <path d="M150 28L153 38L163 41L153 44L150 54L147 44L137 41L147 38L150 28Z" fill="#FFFDF2"/>
  <path d="M53 86C53 64.4609 70.4609 47 92 47H98C119.539 47 137 64.4609 137 86C137 107.539 119.539 125 98 125H84L60 142L64 117.5C57.0289 110.959 53 99.5531 53 86Z" fill="#FFCFE3"/>
  <path d="M87.819 71.6844C90.9844 66.9351 97.932 66.009 102.285 70.0119C106.638 66.009 113.586 66.9351 116.751 71.6844C119.967 76.5096 118.417 82.9331 114.164 87.1818L102.285 99.053L90.4062 87.1818C86.1535 82.9331 84.6035 76.5096 87.819 71.6844Z" fill="white"/>
  <circle cx="56" cy="50" r="10" fill="#BFE8FF"/>
  <path d="M56 38L58.4 46.6L67 49L58.4 51.4L56 60L53.6 51.4L45 49L53.6 46.6L56 38Z" fill="white"/>
  <path d="M139 137L141.8 145.2L150 148L141.8 150.8L139 159L136.2 150.8L128 148L136.2 145.2L139 137Z" fill="#CDBDFF"/>
</svg>
