<svg xmlns="http://www.w3.org/2000/svg" viewBox="0 0 256 256" role="img" aria-label="어른 남자 캐릭터">
  <defs>
    <linearGradient id="bg" x1="0" y1="0" x2="1" y2="1">
      <stop offset="0%" stop-color="#d8cbff"/>
      <stop offset="100%" stop-color="#bfe8ff"/>
    </linearGradient>
  </defs>
  <rect width="256" height="256" rx="72" fill="url(#bg)"/>
  <circle cx="128" cy="104" r="54" fill="#ffd9bf"/>
  <path d="M76 102c3-33 23-56 52-56 26 0 47 18 54 43-8-4-18-6-29-6-14 0-27 3-38 9-10 5-18 12-24 21H76Z" fill="#5b4f7f"/>
  <path d="M85 198c8-34 30-52 65-52 33 0 55 18 62 52v18H85v-18Z" fill="#6f9fd8"/>
  <circle cx="108" cy="107" r="5" fill="#4a4458"/>
  <circle cx="148" cy="107" r="5" fill="#4a4458"/>
  <path d="M111 129c11 8 23 8 34 0" fill="none" stroke="#c77d7d" stroke-linecap="round" stroke-width="5"/>
  <circle cx="89" cy="63" r="7" fill="#fff7c9"/>
  <path d="M178 51l4 10 10 4-10 4-4 10-4-10-10-4 10-4 4-10Z" fill="#fff7c9"/>
</svg>
