<svg xmlns="http://www.w3.org/2000/svg" viewBox="0 0 256 256" role="img" aria-label="아이 남자 캐릭터">
  <defs>
    <linearGradient id="bg" x1="0" y1="0" x2="1" y2="1">
      <stop offset="0%" stop-color="#bfe8ff"/>
      <stop offset="100%" stop-color="#cdbdff"/>
    </linearGradient>
  </defs>
  <rect width="256" height="256" rx="72" fill="url(#bg)"/>
  <circle cx="128" cy="108" r="50" fill="#ffd9bf"/>
  <path d="M84 95c7-28 25-46 48-46 22 0 39 11 49 34-10-6-20-8-31-8-18 0-34 7-47 20H84Z" fill="#4f79c8"/>
  <path d="M83 198c9-32 28-49 55-49 29 0 48 17 57 49v18H83v-18Z" fill="#7ac2ff"/>
  <circle cx="109" cy="109" r="5" fill="#4a4458"/>
  <circle cx="147" cy="109" r="5" fill="#4a4458"/>
  <path d="M113 129c9 8 21 8 30 0" fill="none" stroke="#c77d7d" stroke-linecap="round" stroke-width="5"/>
  <path d="M63 61l5 13 13 5-13 5-5 13-5-13-13-5 13-5 5-13Z" fill="#fff8d8"/>
</svg>
