<svg xmlns="http://www.w3.org/2000/svg" viewBox="0 0 256 256" role="img" aria-label="아이 여자 캐릭터">
  <defs>
    <linearGradient id="bg" x1="0" y1="0" x2="1" y2="1">
      <stop offset="0%" stop-color="#ffe1f0"/>
      <stop offset="100%" stop-color="#cdbdff"/>
    </linearGradient>
  </defs>
  <rect width="256" height="256" rx="72" fill="url(#bg)"/>
  <circle cx="128" cy="108" r="50" fill="#ffe0ca"/>
  <path d="M79 113c0-37 21-62 49-62 29 0 50 25 50 62 0 12-2 23-7 33H86c-5-10-7-21-7-33Z" fill="#7d4f86"/>
  <circle cx="78" cy="112" r="18" fill="#7d4f86"/>
  <circle cx="178" cy="112" r="18" fill="#7d4f86"/>
  <path d="M82 198c10-34 29-50 58-50 31 0 50 16 58 50v18H82v-18Z" fill="#ffbdd5"/>
  <circle cx="109" cy="109" r="5" fill="#4a4458"/>
  <circle cx="147" cy="109" r="5" fill="#4a4458"/>
  <path d="M113 129c10 8 21 8 31 0" fill="none" stroke="#c77d7d" stroke-linecap="round" stroke-width="5"/>
  <path d="M185 57l4 10 10 4-10 4-4 10-4-10-10-4 10-4 4-10Z" fill="#fff8dc"/>
</svg>
